<?xml version="1.0" standalone="no"?>
<!DOCTYPE svg PUBLIC "-//W3C//DTD SVG 20010904//EN"
 "http://www.w3.org/TR/2001/REC-SVG-20010904/DTD/svg10.dtd">
<svg version="1.0" xmlns="http://www.w3.org/2000/svg"
 width="550.000000pt" height="550.000000pt" viewBox="0 0 550.000000 550.000000"
 preserveAspectRatio="xMidYMid meet">
<metadata>
Free icon from http://www.glyphish.com (all credit goes to them)
</metadata>
<g transform="translate(0.000000,550.000000) scale(0.100000,-0.100000)"
fill="#000000" stroke="none">
<path d="M2785 5220 c-560 -73 -977 -191 -1141 -326 -75 -60 -96 -149 -51
-215 30 -45 126 -93 249 -124 88 -22 183 -38 668 -111 175 -27 339 -61 353
-74 12 -11 -67 -33 -263 -75 -91 -19 -217 -47 -280 -61 -301 -68 -400 -155
-355 -309 37 -128 183 -207 407 -222 l97 -6 30 31 c39 38 42 88 8 128 -20 23
-35 28 -126 40 -119 15 -191 37 -216 64 -16 17 -16 19 2 28 38 21 172 55 401
103 261 54 338 76 425 122 69 36 107 81 114 136 7 54 -2 84 -37 125 -64 73
-226 117 -660 181 -393 57 -592 94 -613 114 -4 5 24 22 63 39 199 90 697 203
1020 232 181 17 187 18 210 47 30 38 26 88 -9 124 -27 26 -35 29 -93 28 -35
-1 -126 -9 -203 -19z"/>
<path d="M510 2202 c0 -1181 0 -1211 20 -1288 82 -318 339 -545 663 -585 51
-6 465 -9 1107 -6 1145 3 1071 -1 1234 76 157 74 277 189 354 340 51 98 69
156 85 266 l13 90 95 7 c382 28 738 264 918 608 98 188 135 337 134 550 0 145
-16 240 -60 370 -114 335 -388 605 -731 720 -185 62 -114 60 -2059 60 l-1773
0 0 -1208z m3614 608 c104 -26 167 -62 252 -143 146 -138 210 -336 170 -527
-49 -234 -233 -414 -464 -456 -42 -7 -83 -13 -89 -14 -10 0 -13 122 -13 580
l0 580 33 0 c19 0 69 -9 111 -20z"/>
</g>
</svg>
